<svg width="1922" height="983" viewBox="0 0 1922 983" fill="none" xmlns="http://www.w3.org/2000/svg">
<path d="M1724.16 764.089H1529.35C1551.93 739.326 1571.44 713.072 1587.64 685.438C1595.93 671.304 1603.23 656.951 1609.62 642.419H1584.8C1564.15 686.259 1534.73 727.17 1498.08 764.089H1251.2C1267.88 726.334 1280.93 685.441 1290.06 642.419H1266.97C1257.3 686.269 1243.51 727.162 1226.35 764.089H731.963C714.803 727.161 701 686.273 691.335 642.419H668.243C677.372 685.441 690.426 726.334 707.103 764.089H441.574C404.912 727.162 375.438 686.269 354.787 642.419H329.944C336.34 656.951 343.64 671.304 351.928 685.438C368.131 713.072 387.636 739.326 410.22 764.089H197.835C87.7485 687.329 22.9137 593.286 22.9137 491.667C22.9137 382.218 98.091 281.541 224.047 201.796H426.898C397.098 231.557 371.994 263.675 351.928 297.894C349.219 302.517 346.643 307.169 344.135 311.835H369.999C392.926 272.095 423.191 235.114 459.62 201.796H715.142C698.594 235.882 685.203 272.862 675.078 311.835H698.504C709.232 272.107 723.358 235.105 740.402 201.796H1217.9C1234.95 235.105 1249.07 272.107 1259.8 311.835H1283.23C1273.1 272.862 1259.71 235.882 1243.16 201.796H1479.95C1516.38 235.114 1546.64 272.095 1569.57 311.835H1595.43C1592.92 307.169 1590.35 302.517 1587.64 297.894C1567.57 263.675 1542.47 231.557 1512.67 201.796H1697.95C1823.91 281.541 1899.09 382.218 1899.09 491.667C1899.09 593.287 1834.25 687.33 1724.16 764.089ZM1255.38 936.562C1323.82 913.123 1386.95 881.094 1442.2 841.238C1463.64 825.767 1483.47 809.377 1501.71 792.169H1680.59C1569.73 858.289 1423.03 908.914 1255.38 936.562ZM1213 835.211C1221.9 821.506 1230.19 807.131 1237.86 792.169H1467.85C1374.23 872.827 1243.71 930.438 1094.96 951.394C1139.03 926.519 1179.22 887.287 1213 835.211ZM987.859 959.921C983.484 959.982 979.091 960.006 974.7 960.037C882.875 958.002 800.943 893.154 746.083 792.169H1212.24C1158.23 891.61 1077.97 956.013 987.859 959.921ZM471.678 792.169H720.444C728.12 807.131 736.41 821.506 745.302 835.211C780.524 889.505 822.706 929.846 868.988 954.499C710.13 936.641 570.38 877.223 471.678 792.169ZM241.403 792.169H437.856C456.094 809.377 475.923 825.767 497.372 841.238C556.751 884.073 625.236 917.869 699.626 941.675C518.223 915.446 359.482 862.598 241.403 792.169ZM699.627 41.6582C625.238 65.4635 556.751 99.2595 497.372 142.095C483.298 152.247 469.942 162.806 457.242 173.714H272.152C386.435 112.001 533.53 65.6755 699.627 41.6582ZM745.302 148.122C739.938 156.39 734.868 164.979 729.942 173.714H492.923C589.978 98.0035 721.223 45.4462 868.988 28.8342C822.706 53.4862 780.524 93.8288 745.302 148.122ZM974.711 23.2955C979.095 23.3275 983.483 23.3515 987.852 23.4128C1072.59 27.0848 1148.63 84.2248 1202.32 173.714H755.987C810.571 82.7301 888.271 25.2075 974.711 23.2955ZM1446.64 173.714H1228.36C1223.44 164.979 1218.37 156.39 1213 148.122C1179.22 96.0462 1139.03 56.8142 1094.96 31.9395C1232.77 51.3542 1354.96 102.197 1446.64 173.714ZM1649.85 173.714H1482.33C1469.63 162.806 1456.27 152.247 1442.2 142.095C1386.95 102.239 1323.81 70.2088 1255.38 46.7701C1407.96 71.9341 1543.2 116.121 1649.85 173.714ZM1634.42 140.205C1461.05 53.6275 1233.18 4.48753 990.022 0.858195C989.418 0.846195 988.818 0.822181 988.215 0.810181C985.2 0.690181 982.18 0.616821 979.152 0.616821C978.139 0.616821 977.131 0.659478 976.118 0.672811C974.006 0.658144 971.899 0.616821 969.784 0.616821C968.583 0.616821 967.388 0.644804 966.188 0.648804C964.456 0.644804 962.732 0.616821 961 0.616821C706.992 0.616821 467.834 50.1902 287.58 140.205C102.339 232.71 0.321777 357.527 0.321777 491.667C0.321777 625.805 102.339 750.623 287.58 843.129C467.834 933.143 706.992 982.717 961 982.717C962.732 982.717 964.456 982.689 966.188 982.685C967.388 982.689 968.583 982.717 969.784 982.717C971.899 982.717 974.006 982.675 976.118 982.661C977.131 982.674 978.139 982.717 979.152 982.717C982.18 982.717 985.2 982.643 988.215 982.523C988.818 982.511 989.418 982.489 990.022 982.475C1233.18 978.846 1461.05 929.706 1634.42 843.129C1819.66 750.623 1921.68 625.805 1921.68 491.667C1921.68 357.527 1819.66 232.71 1634.42 140.205ZM1606.3 507.898L1447.08 379.705H1404.58V564.057H1447.08V434.953C1485.89 466.159 1606.3 564.057 1606.3 564.057H1648.8V379.705H1606.3V507.898ZM1263.48 534.495C1260.28 535.203 1256.65 534.818 1253.4 535.242C1230.34 534.891 1211.52 515.271 1209.63 493.002C1208.91 484.462 1210.89 476.47 1215.3 469.118C1225.37 452.29 1247.03 413.272 1247.9 412.049C1251.61 406.865 1255.28 406.81 1258.9 412.001C1260.71 414.595 1281.02 452.7 1290.41 467.077C1307.93 493.874 1291.59 528.251 1263.48 534.495ZM1352.09 381.24C1346.35 379.592 1340.14 378.973 1334.14 378.918C1307.72 378.677 1276.74 378.813 1250.32 378.813C1224.05 378.813 1197.78 378.735 1171.51 378.879C1166.39 378.907 1161.13 379.23 1156.17 380.41C1135.28 385.388 1122.92 401.604 1122.62 425.41C1122.22 456.364 1122.47 487.328 1122.54 518.285C1122.57 528.185 1124.72 537.613 1130.42 545.877C1140.1 559.898 1154.09 564.975 1170.55 564.961C1223.7 564.917 1281.39 564.945 1334.54 564.937C1336.37 564.937 1338.19 564.886 1340.01 564.801C1364 563.663 1382.09 546.205 1382.51 522.23C1383.08 488.702 1382.98 455.153 1382.53 421.621C1382.28 402.234 1370.03 386.384 1352.09 381.24ZM318.51 528.226C318.51 528.226 318.511 422.573 318.496 379.705H274.368C274.355 434.508 274.355 502.913 274.368 557.714C274.368 560.378 274.355 564.164 274.355 564.164C274.355 564.164 302.94 564.179 313.868 564.179C374.934 564.179 445.079 564.183 506.144 564.175V528.226C448.739 528.222 318.499 528.226 318.499 528.226M739.842 379.712C739.839 418.42 739.842 469.848 739.839 508.556C739.839 524.948 736.563 528.218 720.082 528.222C677.411 528.23 629.476 528.234 586.804 528.206C584.23 528.206 581.636 528.097 579.082 527.794C571.702 526.925 567.967 523.011 567.399 515.635C567.247 513.673 567.312 511.69 567.312 509.719C567.308 470.623 567.312 418.808 567.308 379.712H523.166C523.162 420.242 523.154 473.499 523.18 514.03C523.188 517.517 523.34 521.014 523.618 524.491C525.21 544.531 536.851 558.16 556.439 562.334C562.176 563.557 568.162 564.059 574.039 564.098C599.551 564.285 625.063 564.175 650.572 564.179C676.084 564.179 706.86 564.23 732.374 564.137C737.214 564.117 742.11 563.883 746.884 563.143C764.448 560.422 776.996 551.409 781.723 533.643C783.114 528.425 783.85 522.874 783.87 517.473C784.032 475.794 783.983 421.392 783.968 379.712H739.842ZM1052.8 379.716L952.219 516.863L851.639 379.716H811.267C811.267 379.716 811.172 442.014 811.172 469.33L811.176 564.169L819.728 564.179C819.728 564.179 843.56 564.186 855.471 564.174C855.475 522.989 855.475 455.909 855.475 455.909C855.475 455.909 908.664 524.211 934.403 563.694H970.036C995.774 524.211 1048.96 455.909 1048.96 455.909C1048.96 455.909 1048.96 522.989 1048.97 564.174C1060.88 564.186 1084.71 564.179 1084.71 564.179L1093.26 564.169L1093.27 469.33C1093.27 442.014 1093.17 379.716 1093.17 379.716H1052.8Z" fill="currentColor"/>
</svg>
