<?xml version="1.0" encoding="UTF-8"?>
<svg width="74px" height="19px" viewBox="0 0 74 19" version="1.1" xmlns="http://www.w3.org/2000/svg" xmlns:xlink="http://www.w3.org/1999/xlink">
    <!-- Generator: Sketch 39.1 (31720) - http://www.bohemiancoding.com/sketch -->
    <title>link-arrows</title>
    <desc>Created with Sketch.</desc>
    <defs></defs>
    <g id="Assets" stroke="none" stroke-width="1" fill="none" fill-rule="evenodd">
        <g id="link-arrows">
            <polygon id="link-arrow-right-green" fill="#78C783" points="26.6666667 9.82758621 19 0 23.7142857 0 32 9.82758621 21.7142857 19 16 19"></polygon>
            <polygon id="link-arrow-right-blue" fill="#3981ED" points="10.6666667 9.82758621 3 0 7.71428571 0 16 9.82758621 5.71428571 19 0 19"></polygon>
            <polygon id="link-arrow-right-orange" fill="#F9A466" points="42.6666667 9.82758621 35 0 39.7142857 0 48 9.82758621 37.7142857 19 32 19"></polygon>
            <polygon id="link-arrow-right-small" fill="#9B9B9B" opacity="0.5" points="70.3333333 9.72413793 65.0625 3 68.3035714 3 74 9.72413793 66.9285714 16 63 16"></polygon>
            <polygon id="link-arrow-left-small" fill="#9B9B9B" opacity="0.5" transform="translate(54.500000, 9.500000) scale(-1, -1) translate(-54.500000, -9.500000) " points="56.3333333 9.72413793 51.0625 3 54.3035714 3 60 9.72413793 52.9285714 16 49 16"></polygon>
        </g>
    </g>
</svg>